<svg width="54" height="51" viewBox="0 0 54 51" fill="none" xmlns="http://www.w3.org/2000/svg">
<path d="M14.0333 37.5844C14.2436 37.6545 14.4381 37.7654 14.6056 37.9108C14.7731 38.0562 14.9103 38.2331 15.0093 38.4315C15.1084 38.6299 15.1673 38.8459 15.1829 39.0671C15.1984 39.2883 15.1701 39.5105 15.0998 39.7208L13.4123 44.7833C13.2586 45.1918 12.9527 45.5249 12.5587 45.7126C12.1646 45.9004 11.7132 45.9282 11.2991 45.7902C10.8851 45.6521 10.5406 45.359 10.338 44.9724C10.1354 44.5858 10.0906 44.1358 10.2128 43.7167L11.9003 38.6542C12.0413 38.2295 12.3452 37.8782 12.7452 37.6776C13.1452 37.477 13.6085 37.4434 14.0333 37.5844ZM24.1583 37.5844C24.3686 37.6545 24.5631 37.7654 24.7306 37.9108C24.8981 38.0562 25.0353 38.2331 25.1343 38.4315C25.2334 38.6299 25.2923 38.8459 25.3079 39.0671C25.3234 39.2883 25.2951 39.5105 25.2248 39.7208L21.8498 49.8458C21.6961 50.2543 21.3902 50.5874 20.9962 50.7751C20.6021 50.9629 20.1507 50.9907 19.7366 50.8527C19.3226 50.7146 18.9781 50.4215 18.7755 50.0349C18.5729 49.6483 18.5281 49.1983 18.6503 48.7792L22.0253 38.6542C22.1663 38.2295 22.4702 37.8782 22.8702 37.6776C23.2702 37.477 23.7335 37.4434 24.1583 37.5844ZM34.2833 37.5844C34.4936 37.6545 34.6881 37.7654 34.8556 37.9108C35.0231 38.0562 35.1603 38.2331 35.2593 38.4315C35.3584 38.6299 35.4173 38.8459 35.4329 39.0671C35.4484 39.2883 35.4201 39.5105 35.3498 39.7208L33.6623 44.7833C33.5086 45.1918 33.2027 45.5249 32.8087 45.7126C32.4146 45.9004 31.9632 45.9282 31.5491 45.7902C31.1351 45.6521 30.7906 45.359 30.588 44.9724C30.3854 44.5858 30.3406 44.1358 30.4628 43.7167L32.1503 38.6542C32.2913 38.2295 32.5952 37.8782 32.9952 37.6776C33.3952 37.477 33.8585 37.4434 34.2833 37.5844ZM44.4083 37.5844C44.6186 37.6545 44.8131 37.7654 44.9806 37.9108C45.1481 38.0562 45.2853 38.2331 45.3843 38.4315C45.4834 38.6299 45.5423 38.8459 45.5579 39.0671C45.5734 39.2883 45.5451 39.5105 45.4748 39.7208L42.0998 49.8458C42.0362 50.0637 41.9293 50.2665 41.7855 50.4422C41.6418 50.6178 41.464 50.7627 41.2629 50.868C41.0619 50.9734 40.8416 51.0371 40.6154 51.0553C40.3891 51.0735 40.1615 51.0459 39.9461 50.9742C39.7308 50.9024 39.5321 50.7879 39.3621 50.6375C39.192 50.4872 39.054 50.3041 38.9564 50.0991C38.8587 49.8942 38.8034 49.6717 38.7938 49.4449C38.7841 49.2181 38.8204 48.9917 38.9003 48.7792L42.2753 38.6542C42.4163 38.2295 42.7202 37.8782 43.1202 37.6776C43.5202 37.477 43.9835 37.4434 44.4083 37.5844ZM45.2419 13.9661C44.541 10.433 42.7283 7.21683 40.0687 4.78774C37.4091 2.35865 34.0422 0.844078 30.4602 0.46548C26.8782 0.0868816 23.2691 0.864113 20.1604 2.68353C17.0518 4.50295 14.6068 7.26913 13.1828 10.5776C11.5858 10.3937 9.96817 10.5376 8.4288 11.0005C6.88943 11.4635 5.46075 12.2358 4.23023 13.2701C2.99971 14.3044 1.99325 15.579 1.27246 17.0159C0.551675 18.4527 0.131736 20.0215 0.0383521 21.6263C-0.0550314 23.2311 0.180107 24.838 0.72937 26.3487C1.27863 27.8595 2.13046 29.2422 3.23271 30.4123C4.33495 31.5823 5.66441 32.5151 7.13969 33.1535C8.61497 33.7919 10.205 34.1225 11.8125 34.125H43.875C46.4438 34.1279 48.9176 33.1544 50.7954 31.4016C52.6732 29.6488 53.8146 27.2478 53.9884 24.685C54.1622 22.1221 53.3553 19.589 51.7313 17.5988C50.1073 15.6085 47.7875 14.31 45.2419 13.9661ZM28.6875 3.75C32.0084 3.74931 35.213 4.97266 37.6886 7.18613C40.1642 9.3996 41.7371 12.4479 42.1065 15.7481C42.1524 16.1628 42.3502 16.5457 42.6619 16.8231C42.9735 17.1004 43.3768 17.2525 43.794 17.25H43.875C45.6652 17.25 47.3821 17.9612 48.648 19.227C49.9139 20.4929 50.625 22.2098 50.625 24C50.625 25.7902 49.9139 27.5071 48.648 28.773C47.3821 30.0388 45.6652 30.75 43.875 30.75H11.8125C10.618 30.7494 9.43725 30.4952 8.34834 30.0042C7.25942 29.5132 6.28718 28.7965 5.49591 27.9017C4.70465 27.0068 4.11241 25.9542 3.75836 24.8134C3.40431 23.6725 3.29652 22.4695 3.44213 21.284C3.58775 20.0984 3.98343 18.9572 4.60302 17.936C5.22261 16.9147 6.05198 16.0367 7.03627 15.3599C8.02055 14.6831 9.13732 14.2231 10.3127 14.0101C11.4881 13.7972 12.6952 13.8363 13.8544 14.1248C14.2679 14.2279 14.7052 14.1707 15.0783 13.9648C15.4514 13.7588 15.7328 13.4193 15.8659 13.0144C16.7578 10.3183 18.4768 7.97201 20.7786 6.30886C23.0804 4.6457 25.8478 3.75033 28.6875 3.75Z" fill="white"/>
</svg>
